M48
; DRILL file {KiCad (6.0.7)} date Fri 16 Sep 2022 01:25:40 AM CEST
; FORMAT={-:-/ absolute / inch / decimal}
; #@! TF.CreationDate,2022-09-16T01:25:40+02:00
; #@! TF.GenerationSoftware,Kicad,Pcbnew,(6.0.7)
; #@! TF.FileFunction,Plated,1,2,PTH
FMAT,2
INCH
; #@! TA.AperFunction,Plated,PTH,ViaDrill
T1C0.0157
; #@! TA.AperFunction,Plated,PTH,ComponentDrill
T2C0.0256
; #@! TA.AperFunction,Plated,PTH,ComponentDrill
T3C0.0315
%
G90
G05
T1
X4.0719Y-3.8445
X4.1063Y-3.9163
X4.5241Y-3.6599
X4.5704Y-3.6116
X4.5746Y-3.994
X4.5768Y-3.9547
X4.7152Y-3.9542
X4.7614Y-3.9531
X5.1171Y-3.5453
X5.2146Y-3.7589
X5.439Y-4.2343
X5.452Y-3.6524
X5.4882Y-3.8396
X5.498Y-3.7624
X5.5492Y-3.6956
X5.6338Y-3.561
X5.6585Y-3.7097
X5.66Y-4.056
X5.66Y-4.272
X5.6949Y-3.9921
T2
X5.7795Y-3.7697
X5.7795Y-3.8197
T3
X5.7776Y-3.3858
X5.7776Y-3.4646
X5.7776Y-3.5433
X5.7776Y-3.622
X5.778Y-3.962
X5.778Y-4.0407
X5.778Y-4.1195
X5.778Y-4.1982
T0
M30
