%TF.GenerationSoftware,KiCad,Pcbnew,(6.0.7)*%
%TF.CreationDate,2022-09-29T21:15:40+02:00*%
%TF.ProjectId,ledpcb,6c656470-6362-42e6-9b69-6361645f7063,rev?*%
%TF.SameCoordinates,Original*%
%TF.FileFunction,Legend,Bot*%
%TF.FilePolarity,Positive*%
%FSLAX46Y46*%
G04 Gerber Fmt 4.6, Leading zero omitted, Abs format (unit mm)*
G04 Created by KiCad (PCBNEW (6.0.7)) date 2022-09-29 21:15:40*
%MOMM*%
%LPD*%
G01*
G04 APERTURE LIST*
%ADD10C,0.300000*%
G04 APERTURE END LIST*
D10*
X137385714Y-100048571D02*
X137885714Y-99334285D01*
X138242857Y-100048571D02*
X138242857Y-98548571D01*
X137671428Y-98548571D01*
X137528571Y-98620000D01*
X137457142Y-98691428D01*
X137385714Y-98834285D01*
X137385714Y-99048571D01*
X137457142Y-99191428D01*
X137528571Y-99262857D01*
X137671428Y-99334285D01*
X138242857Y-99334285D01*
X136100000Y-100048571D02*
X136100000Y-99262857D01*
X136171428Y-99120000D01*
X136314285Y-99048571D01*
X136600000Y-99048571D01*
X136742857Y-99120000D01*
X136100000Y-99977142D02*
X136242857Y-100048571D01*
X136600000Y-100048571D01*
X136742857Y-99977142D01*
X136814285Y-99834285D01*
X136814285Y-99691428D01*
X136742857Y-99548571D01*
X136600000Y-99477142D01*
X136242857Y-99477142D01*
X136100000Y-99405714D01*
X134742857Y-99048571D02*
X134742857Y-100048571D01*
X135385714Y-99048571D02*
X135385714Y-99834285D01*
X135314285Y-99977142D01*
X135171428Y-100048571D01*
X134957142Y-100048571D01*
X134814285Y-99977142D01*
X134742857Y-99905714D01*
X134028571Y-100048571D02*
X134028571Y-99048571D01*
X134028571Y-99191428D02*
X133957142Y-99120000D01*
X133814285Y-99048571D01*
X133600000Y-99048571D01*
X133457142Y-99120000D01*
X133385714Y-99262857D01*
X133385714Y-100048571D01*
X133385714Y-99262857D02*
X133314285Y-99120000D01*
X133171428Y-99048571D01*
X132957142Y-99048571D01*
X132814285Y-99120000D01*
X132742857Y-99262857D01*
X132742857Y-100048571D01*
X131100000Y-99048571D02*
X130528571Y-99048571D01*
X130885714Y-100048571D02*
X130885714Y-98762857D01*
X130814285Y-98620000D01*
X130671428Y-98548571D01*
X130528571Y-98548571D01*
X129385714Y-99048571D02*
X129385714Y-100048571D01*
X130028571Y-99048571D02*
X130028571Y-99834285D01*
X129957142Y-99977142D01*
X129814285Y-100048571D01*
X129600000Y-100048571D01*
X129457142Y-99977142D01*
X129385714Y-99905714D01*
X129957142Y-98548571D02*
X129885714Y-98620000D01*
X129957142Y-98691428D01*
X130028571Y-98620000D01*
X129957142Y-98548571D01*
X129957142Y-98691428D01*
X129385714Y-98548571D02*
X129314285Y-98620000D01*
X129385714Y-98691428D01*
X129457142Y-98620000D01*
X129385714Y-98548571D01*
X129385714Y-98691428D01*
X128671428Y-100048571D02*
X128671428Y-99048571D01*
X128671428Y-99334285D02*
X128600000Y-99191428D01*
X128528571Y-99120000D01*
X128385714Y-99048571D01*
X128242857Y-99048571D01*
X126600000Y-100048571D02*
X126600000Y-98548571D01*
X125742857Y-100048571D01*
X125742857Y-98548571D01*
X124814285Y-100048571D02*
X124957142Y-99977142D01*
X125028571Y-99905714D01*
X125100000Y-99762857D01*
X125100000Y-99334285D01*
X125028571Y-99191428D01*
X124957142Y-99120000D01*
X124814285Y-99048571D01*
X124600000Y-99048571D01*
X124457142Y-99120000D01*
X124385714Y-99191428D01*
X124314285Y-99334285D01*
X124314285Y-99762857D01*
X124385714Y-99905714D01*
X124457142Y-99977142D01*
X124600000Y-100048571D01*
X124814285Y-100048571D01*
X123885714Y-99048571D02*
X123314285Y-99048571D01*
X123671428Y-98548571D02*
X123671428Y-99834285D01*
X123600000Y-99977142D01*
X123457142Y-100048571D01*
X123314285Y-100048571D01*
X122814285Y-100048571D02*
X122814285Y-99048571D01*
X122814285Y-98548571D02*
X122885714Y-98620000D01*
X122814285Y-98691428D01*
X122742857Y-98620000D01*
X122814285Y-98548571D01*
X122814285Y-98691428D01*
X122242857Y-99048571D02*
X121457142Y-99048571D01*
X122242857Y-100048571D01*
X121457142Y-100048571D01*
X120314285Y-99977142D02*
X120457142Y-100048571D01*
X120742857Y-100048571D01*
X120885714Y-99977142D01*
X120957142Y-99834285D01*
X120957142Y-99262857D01*
X120885714Y-99120000D01*
X120742857Y-99048571D01*
X120457142Y-99048571D01*
X120314285Y-99120000D01*
X120242857Y-99262857D01*
X120242857Y-99405714D01*
X120957142Y-99548571D01*
X119600000Y-99048571D02*
X119600000Y-100048571D01*
X119600000Y-99191428D02*
X119528571Y-99120000D01*
X119385714Y-99048571D01*
X119171428Y-99048571D01*
X119028571Y-99120000D01*
X118957142Y-99262857D01*
X118957142Y-100048571D01*
M02*
