<?xml version="1.0" encoding="UTF-8" standalone="no"?>
<!-- Created with Inkscape (http://www.inkscape.org/) -->

<svg
   width="10mm"
   height="5.7697453mm"
   viewBox="0 0 10 5.7697453"
   version="1.1"
   id="svg5"
   xml:space="preserve"
   inkscape:export-filename="shork.svg"
   inkscape:export-xdpi="218.94"
   inkscape:export-ydpi="218.94"
   inkscape:version="1.2 (dc2aeda, 2022-05-15)"
   sodipodi:docname="shork.svg"
   xmlns:inkscape="http://www.inkscape.org/namespaces/inkscape"
   xmlns:sodipodi="http://sodipodi.sourceforge.net/DTD/sodipodi-0.dtd"
   xmlns="http://www.w3.org/2000/svg"
   xmlns:svg="http://www.w3.org/2000/svg"><sodipodi:namedview
     id="namedview7"
     pagecolor="#ffffff"
     bordercolor="#666666"
     borderopacity="1.0"
     inkscape:showpageshadow="2"
     inkscape:pageopacity="0.0"
     inkscape:pagecheckerboard="0"
     inkscape:deskcolor="#d1d1d1"
     inkscape:document-units="mm"
     showgrid="false"
     inkscape:zoom="19.02887"
     inkscape:cx="8.276897"
     inkscape:cy="17.34207"
     inkscape:window-width="3832"
     inkscape:window-height="2120"
     inkscape:window-x="0"
     inkscape:window-y="0"
     inkscape:window-maximized="1"
     inkscape:current-layer="layer1" /><defs
     id="defs2" /><g
     inkscape:label="Layer 1"
     inkscape:groupmode="layer"
     id="layer1"
     transform="translate(-35.771573,-107.03861)"><path
       style="fill:none;stroke:#000000;stroke-width:0.2;stroke-dasharray:none"
       d="m 41.840735,111.74086 c -0.410744,-0.0158 -0.812704,-0.0998 -1.169386,-0.26695 -0.393104,-0.20742 -0.853823,-0.12245 -1.289902,-0.11822 -0.663734,0.0462 -1.255431,-0.23091 -1.856112,-0.40634 -0.149857,-0.0185 -0.289836,-0.19633 -0.457754,-0.24937 -0.193951,-0.19343 -0.504952,-0.34337 -0.54427,-0.62143 -0.185214,-0.25782 0.140113,-0.51131 0.406759,-0.62515 0.348254,-0.1549 0.75362,-0.1834 1.133809,-0.26072 0.562664,-0.0509 1.125134,-0.10344 1.690921,-0.13986 0.35694,-0.0274 0.69273,-0.20372 0.79616,-0.49265 0.208218,-0.37419 0.461367,-0.80486 0.979214,-0.9449 0.422628,0.0594 -0.03192,0.47225 0.01473,0.69885 -0.05366,0.3122 -0.227629,0.73208 0.170586,0.94609 0.274713,0.11083 0.602092,0.14223 0.909754,0.14303 0.292482,0.0554 0.49291,-0.53733 0.64323,-0.25914 -0.101964,0.41129 0.569774,0.16862 0.792347,0.0623 0.330167,-0.24832 0.51442,-0.60227 0.845896,-0.85394 0.13528,-0.27566 0.666936,-0.22879 0.392678,0.10344 -0.131351,0.30561 -0.435996,0.57886 -0.446435,0.90659 0.08403,0.25385 0.352195,0.43829 0.445929,0.67916 -0.171129,0.28677 -0.628255,-0.10872 -0.85769,-0.18446 -0.3422,-0.14434 -0.569394,0.27606 -0.880507,0.35889 -0.447208,0.19132 -0.909211,0.35767 -1.400426,0.45676 -0.238174,0.114 -0.696246,0.19713 -0.758913,0.39512 0.260335,0.17179 0.540401,0.33047 0.887879,0.35324 0.415363,-0.005 0.252363,0.37388 -0.09292,0.31643 -0.118299,0.008 -0.237192,0.005 -0.355669,0.003 z"
       id="path302"
       sodipodi:nodetypes="cccccccccccccccccccccccccccc" /></g></svg>
